HIERARCHY
ROOT hip
{
  OFFSET 0 90.174 2.4664
  CHANNELS 6 Xposition Yposition Zposition Zrotation Xrotation Yrotation
  JOINT abdomen
  {
    OFFSET 0 -1.186 -1.5018
    CHANNELS 6 Xposition Yposition Zposition Zrotation Xrotation Yrotation
    JOINT abdomen2
    {
      OFFSET 0 9.964 0.2134
      CHANNELS 6 Xposition Yposition Zposition Zrotation Xrotation Yrotation
      JOINT chest
      {
        OFFSET 0 13.134 -3.2573
        CHANNELS 6 Xposition Yposition Zposition Zrotation Xrotation Yrotation
        JOINT neck
        {
          OFFSET 0 20.686 -1.6905
          CHANNELS 6 Xposition Yposition Zposition Zrotation Xrotation Yrotation
          JOINT head
          {
            OFFSET 0 7.238 -0.1237
            CHANNELS 6 Xposition Yposition Zposition Zrotation Xrotation Yrotation
            End Site
            {
              OFFSET 0 0 0
            }
          }
        }
        JOINT lCollar
        {
          OFFSET 1.7069 20.075 5.0056
          CHANNELS 6 Xposition Yposition Zposition Zrotation Xrotation Yrotation
          JOINT lShldr
          {
            OFFSET 13.6458 -0.047 -4.849
            CHANNELS 6 Xposition Yposition Zposition Zrotation Xrotation Yrotation
            JOINT lForeArm
            {
              OFFSET 28.3255 -0.9759 2.2888
              CHANNELS 6 Xposition Yposition Zposition Zrotation Xrotation Yrotation
              JOINT lHand
              {
                OFFSET 22.1583 -0.53 10.8316
                CHANNELS 6 Xposition Yposition Zposition Zrotation Xrotation Yrotation
                JOINT lThumb1
                {
                  OFFSET 0.786 0.112 2.5817
                  CHANNELS 6 Xposition Yposition Zposition Zrotation Xrotation Yrotation
                  JOINT lThumb2
                  {
                    OFFSET 0.3601 -0.878 4.2331
                    CHANNELS 6 Xposition Yposition Zposition Zrotation Xrotation Yrotation
                    JOINT lThumb2_End
                    {
                      OFFSET 1.8127 -1.216 2.2227
                      CHANNELS 6 Xposition Yposition Zposition Zrotation Xrotation Yrotation
                      End Site
                      {
                        OFFSET 0.0181 -0.0122 0.0222
                      }
                    }
                  }
                }
                JOINT lCarpal1
                {
                  OFFSET 0.9571 1.114 1.7695
                  CHANNELS 6 Xposition Yposition Zposition Zrotation Xrotation Yrotation
                  JOINT lIndex1
                  {
                    OFFSET 4.1246 0.487 4.1451
                    CHANNELS 6 Xposition Yposition Zposition Zrotation Xrotation Yrotation
                    JOINT lIndex2
                    {
                      OFFSET 3.4052 -1.454 2.7682
                      CHANNELS 6 Xposition Yposition Zposition Zrotation Xrotation Yrotation
                      JOINT lIndex2_End
                      {
                        OFFSET 1.4531 -1.795 1.2713
                        CHANNELS 6 Xposition Yposition Zposition Zrotation Xrotation Yrotation
                        End Site
                        {
                          OFFSET 0.0145 -0.0179 0.0127
                        }
                      }
                    }
                  }
                  JOINT lMid1
                  {
                    OFFSET 5.6954 0.21 2.1184
                    CHANNELS 6 Xposition Yposition Zposition Zrotation Xrotation Yrotation
                    JOINT lMid2
                    {
                      OFFSET 3.9766 -1.54 2.3863
                      CHANNELS 6 Xposition Yposition Zposition Zrotation Xrotation Yrotation
                      JOINT lMid2_End
                      {
                        OFFSET 1.4042 -1.926 1.125
                        CHANNELS 6 Xposition Yposition Zposition Zrotation Xrotation Yrotation
                        End Site
                        {
                          OFFSET 0.014 -0.0193 0.0113
                        }
                      }
                    }
                  }
                }
                JOINT lCarpal2
                {
                  OFFSET 2.0956 0.66 -0.3894
                  CHANNELS 6 Xposition Yposition Zposition Zrotation Xrotation Yrotation
                  JOINT lRing1
                  {
                    OFFSET 5.0395 -0.09 2.4971
                    CHANNELS 6 Xposition Yposition Zposition Zrotation Xrotation Yrotation
                    JOINT lRing2
                    {
                      OFFSET 3.7921 -1.552 1.4806
                      CHANNELS 6 Xposition Yposition Zposition Zrotation Xrotation Yrotation
                      JOINT lRing2_End
                      {
                        OFFSET 1.4655 -1.808 0.9609
                        CHANNELS 6 Xposition Yposition Zposition Zrotation Xrotation Yrotation
                        End Site
                        {
                          OFFSET 0.0147 -0.0181 0.0096
                        }
                      }
                    }
                  }
                  JOINT lPinky1
                  {
                    OFFSET 4.9141 -1.269 0.3591
                    CHANNELS 6 Xposition Yposition Zposition Zrotation Xrotation Yrotation
                    JOINT lPinky2
                    {
                      OFFSET 3.1477 -1.685 0.8462
                      CHANNELS 6 Xposition Yposition Zposition Zrotation Xrotation Yrotation
                      JOINT lPinky2_End
                      {
                        OFFSET 0.8055 -1.585 0.7955
                        CHANNELS 6 Xposition Yposition Zposition Zrotation Xrotation Yrotation
                        End Site
                        {
                          OFFSET 0.0081 -0.0158 0.008
                        }
                      }
                    }
                  }
                }
              }
            }
          }
        }
        JOINT rCollar
        {
          OFFSET -1.7069 20.075 5.0056
          CHANNELS 6 Xposition Yposition Zposition Zrotation Xrotation Yrotation
          JOINT rShldr
          {
            OFFSET -13.6458 -0.047 -4.849
            CHANNELS 6 Xposition Yposition Zposition Zrotation Xrotation Yrotation
            JOINT rForeArm
            {
              OFFSET -28.3255 -0.9759 2.2888
              CHANNELS 6 Xposition Yposition Zposition Zrotation Xrotation Yrotation
              JOINT rHand
              {
                OFFSET -22.1583 -0.53 10.8316
                CHANNELS 6 Xposition Yposition Zposition Zrotation Xrotation Yrotation
                JOINT rThumb1
                {
                  OFFSET -0.786 0.112 2.5817
                  CHANNELS 6 Xposition Yposition Zposition Zrotation Xrotation Yrotation
                  JOINT rThumb2
                  {
                    OFFSET -0.3601 -0.878 4.2331
                    CHANNELS 6 Xposition Yposition Zposition Zrotation Xrotation Yrotation
                    JOINT rThumb2_End
                    {
                      OFFSET -1.8127 -1.216 2.2227
                      CHANNELS 6 Xposition Yposition Zposition Zrotation Xrotation Yrotation
                      End Site
                      {
                        OFFSET -0.0181 -0.0122 0.0222
                      }
                    }
                  }
                }
                JOINT rCarpal1
                {
                  OFFSET -0.9571 1.114 1.7695
                  CHANNELS 6 Xposition Yposition Zposition Zrotation Xrotation Yrotation
                  JOINT rIndex1
                  {
                    OFFSET -4.1246 0.487 4.1451
                    CHANNELS 6 Xposition Yposition Zposition Zrotation Xrotation Yrotation
                    JOINT rIndex2
                    {
                      OFFSET -3.4052 -1.454 2.7682
                      CHANNELS 6 Xposition Yposition Zposition Zrotation Xrotation Yrotation
                      JOINT rIndex2_End
                      {
                        OFFSET -1.4531 -1.795 1.2713
                        CHANNELS 6 Xposition Yposition Zposition Zrotation Xrotation Yrotation
                        End Site
                        {
                          OFFSET -0.0145 -0.018 0.0127
                        }
                      }
                    }
                  }
                  JOINT rMid1
                  {
                    OFFSET -5.6954 0.21 2.1184
                    CHANNELS 6 Xposition Yposition Zposition Zrotation Xrotation Yrotation
                    JOINT rMid2
                    {
                      OFFSET -3.9766 -1.54 2.3863
                      CHANNELS 6 Xposition Yposition Zposition Zrotation Xrotation Yrotation
                      JOINT rMid2_End
                      {
                        OFFSET -1.4042 -1.926 1.125
                        CHANNELS 6 Xposition Yposition Zposition Zrotation Xrotation Yrotation
                        End Site
                        {
                          OFFSET -0.014 -0.0193 0.0113
                        }
                      }
                    }
                  }
                }
                JOINT rCarpal2
                {
                  OFFSET -2.0956 0.66 -0.3894
                  CHANNELS 6 Xposition Yposition Zposition Zrotation Xrotation Yrotation
                  JOINT rRing1
                  {
                    OFFSET -5.0395 -0.09 2.4971
                    CHANNELS 6 Xposition Yposition Zposition Zrotation Xrotation Yrotation
                    JOINT rRing2
                    {
                      OFFSET -3.7921 -1.552 1.4806
                      CHANNELS 6 Xposition Yposition Zposition Zrotation Xrotation Yrotation
                      JOINT rRing2_End
                      {
                        OFFSET -1.4655 -1.808 0.9609
                        CHANNELS 6 Xposition Yposition Zposition Zrotation Xrotation Yrotation
                        End Site
                        {
                          OFFSET -0.0147 -0.0181 0.0096
                        }
                      }
                    }
                  }
                  JOINT rPinky1
                  {
                    OFFSET -4.9141 -1.269 0.3592
                    CHANNELS 6 Xposition Yposition Zposition Zrotation Xrotation Yrotation
                    JOINT rPinky2
                    {
                      OFFSET -3.1477 -1.685 0.8462
                      CHANNELS 6 Xposition Yposition Zposition Zrotation Xrotation Yrotation
                      JOINT rPinky2_End
                      {
                        OFFSET -0.8055 -1.585 0.7955
                        CHANNELS 6 Xposition Yposition Zposition Zrotation Xrotation Yrotation
                        End Site
                        {
                          OFFSET -0.0081 -0.0158 0.008
                        }
                      }
                    }
                  }
                }
              }
            }
          }
        }
      }
    }
  }
  JOINT lThigh
  {
    OFFSET 8.367 -8.2066 0.5982
    CHANNELS 6 Xposition Yposition Zposition Zrotation Xrotation Yrotation
    JOINT lShin
    {
      OFFSET 2.1923 -43.463 -0.4932
      CHANNELS 6 Xposition Yposition Zposition Zrotation Xrotation Yrotation
      JOINT lFoot
      {
        OFFSET 0.7333 -45.8593 -2.6451
        CHANNELS 6 Xposition Yposition Zposition Zrotation Xrotation Yrotation
        End Site
        {
          OFFSET 2.6618 -4.2699 12.3931
        }
      }
    }
  }
  JOINT rThigh
  {
    OFFSET -8.367 -8.2066 0.5982
    CHANNELS 6 Xposition Yposition Zposition Zrotation Xrotation Yrotation
    JOINT rShin
    {
      OFFSET -2.1923 -43.463 -0.4931
      CHANNELS 6 Xposition Yposition Zposition Zrotation Xrotation Yrotation
      JOINT rFoot
      {
        OFFSET -0.7333 -45.8593 -2.6451
        CHANNELS 6 Xposition Yposition Zposition Zrotation Xrotation Yrotation
        End Site
        {
          OFFSET -2.6618 -4.2699 12.3931
        }
      }
    }
  }
}
MOTION
Frames:	4
Frame Time:	0.0333333
2.28712 2.58731 -7.64094 -0 -81.9773 -0 0 -1.186 -1.5018 -0.039996 3.59809 -0.121679 0 9.964 0.2134 -0.0725332 7.19625 -0.241552 -4.44089e-016 13.134 -3.2573 -0.072533 7.19624 -0.241552 -4.44089e-016 20.686 -1.6905 18.0082 18.9715 1.96434 0 7.238 -0.1237 11.064 6.21623 11.7856 1.7069 20.075 5.0056 7.58545 12.6445 11.6708 13.6458 -0.047 -4.849 -79.9374 -0.313473 38.4499 28.3255 -0.9759 2.2888 32.9677 5.074 -66.7074 22.1583 -0.53 10.8316 0.219182 30.323 -3.60629 0.786 0.112 2.5817 0 0 -0 0.3601 -0.878 4.2331 -7.95139e-016 2.78299e-015 -0 1.8127 -1.216 2.2227 2.38542e-015 1.98785e-015 3.18055e-015 0.9571 1.114 1.7695 0 7.95139e-016 -0 4.1246 0.487 4.1451 -1.59028e-015 5.1684e-015 3.18055e-015 3.4052 -1.454 2.7682 -1.59028e-015 3.97569e-016 -3.18055e-015 1.4531 -1.795 1.2713 -7.95139e-016 0 -0 5.6954 0.21 2.1184 -1.59028e-015 5.1684e-015 3.18055e-015 3.9766 -1.54 2.3863 -1.59028e-015 3.97569e-016 -3.18055e-015 1.4042 -1.926 1.125 -7.95139e-016 0 -0 2.0956 0.66 -0.3894 0 7.95139e-016 -0 5.0395 -0.09 2.4971 -1.59028e-015 5.1684e-015 3.18055e-015 3.7921 -1.552 1.4806 -1.59028e-015 3.97569e-016 -3.18055e-015 1.4655 -1.808 0.9609 -7.95139e-016 0 -0 4.9141 -1.269 0.3591 -1.59028e-015 5.1684e-015 3.18055e-015 3.1477 -1.685 0.8462 -1.59028e-015 3.97569e-016 -3.18055e-015 0.8055 -1.585 0.7955 -7.95139e-016 0 -0 -1.7069 20.075 5.0056 -7.9788 12.5672 -11.6051 -13.6458 -0.047 -4.849 80.0726 -0.428255 -37.8093 -28.3255 -0.9759 2.2888 -33.6553 3.80458 66.0006 -22.1583 -0.53 10.8316 -0.529639 30.2581 4.54087 -0.786 0.112 2.5817 -7.95139e-016 0 -0 -0.3601 -0.878 4.2331 2.97788e-006 -2.92274e-007 6.67051e-006 -1.8127 -1.216 2.2227 -2.97788e-006 2.92274e-007 -6.67051e-006 -0.9571 1.114 1.7695 0 0 -0 -4.1246 0.487 4.1451 -1.59028e-015 -5.1684e-015 -3.18055e-015 -3.4052 -1.454 2.7682 2.97788e-006 -2.92274e-007 6.67051e-006 -1.4531 -1.795 1.2713 -2.97788e-006 2.92274e-007 -6.67051e-006 -5.6954 0.21 2.1184 -1.59028e-015 -5.1684e-015 -3.18055e-015 -3.9766 -1.54 2.3863 2.97788e-006 -2.92274e-007 6.67051e-006 -1.4042 -1.926 1.125 -2.97788e-006 2.92274e-007 -6.67051e-006 -2.0956 0.66 -0.3894 0 0 -0 -5.0395 -0.09 2.4971 -1.59028e-015 -5.1684e-015 -3.18055e-015 -3.7921 -1.552 1.4806 2.97788e-006 -2.92274e-007 6.67051e-006 -1.4655 -1.808 0.9609 -2.97788e-006 2.92274e-007 -6.67051e-006 -4.9141 -1.269 0.3592 -1.59028e-015 -5.1684e-015 -3.18055e-015 -3.1477 -1.685 0.8462 2.97788e-006 -2.92274e-007 6.67051e-006 -0.8055 -1.585 0.7955 -2.97788e-006 2.92274e-007 -6.67051e-006 8.367 -8.2066 0.5982 54.4258 -50.6431 24.3825 2.1923 -43.463 -0.4932 -174.184 77.0573 -178.583 0.7333 -45.8593 -2.6451 7.34287 21.0347 5.496 -8.367 -8.2066 0.5982 -55.431 -12.2358 1.9787 -2.1923 -43.463 -0.4931 1.0773 33.9004 -3.05521 -0.7333 -45.8593 -2.6451 -6.55078 24.0961 -2.53183 
2.2807 2.60566 -7.58885 -0 -81.752 -0 0 -1.186 -1.5018 -0.0394905 3.48613 -0.121909 4.44089e-016 9.964 0.2134 -0.0717336 6.97232 -0.24208 -4.44089e-016 13.134 -3.2573 -0.0717336 6.97235 -0.242079 -4.44089e-016 20.686 -1.6905 17.9751 18.6716 2.06729 3.55271e-015 7.238 -0.1237 11.0547 5.76377 11.8745 1.7069 20.075 5.0056 7.77647 12.9932 11.7367 13.6458 -0.047 -4.849 -80.0541 -0.368009 38.516 28.3255 -0.9759 2.2888 32.9677 5.07399 -66.7074 22.1583 -0.53 10.8316 0.145678 30.4903 -3.62965 0.786 0.112 2.5817 7.95139e-016 3.57812e-015 3.18055e-015 0.3601 -0.878 4.2331 1.59028e-015 0 3.18055e-015 1.8127 -1.216 2.2227 -7.94503e-031 7.15625e-015 6.36111e-015 0.9571 1.114 1.7695 7.95139e-016 3.18055e-015 3.18055e-015 4.1246 0.487 4.1451 2.38542e-015 3.18055e-015 -0 3.4052 -1.454 2.7682 3.97569e-015 3.97569e-016 -0 1.4531 -1.795 1.2713 2.38542e-015 -2.38542e-015 3.18055e-015 5.6954 0.21 2.1184 2.38542e-015 3.18055e-015 -0 3.9766 -1.54 2.3863 3.97569e-015 3.97569e-016 -0 1.4042 -1.926 1.125 2.38542e-015 -2.38542e-015 3.18055e-015 2.0956 0.66 -0.3894 7.95139e-016 3.18055e-015 3.18055e-015 5.0395 -0.09 2.4971 2.38542e-015 3.18055e-015 -0 3.7921 -1.552 1.4806 3.97569e-015 3.97569e-016 -0 1.4655 -1.808 0.9609 2.38542e-015 -2.38542e-015 3.18055e-015 4.9141 -1.269 0.3591 2.38542e-015 3.18055e-015 -0 3.1477 -1.685 0.8462 3.97569e-015 3.97569e-016 -0 0.8055 -1.585 0.7955 2.38542e-015 -2.38542e-015 3.18055e-015 -1.7069 20.075 5.0056 -8.18127 12.9139 -11.6679 -13.6458 -0.047 -4.849 80.1887 -0.482709 -37.8777 -28.3255 -0.9759 2.2888 -33.6553 3.8046 66.0006 -22.1583 -0.53 10.8316 -0.456477 30.4266 4.56947 -0.786 0.112 2.5817 3.97569e-015 -2.38542e-015 -0 -0.3601 -0.878 4.2331 1.59028e-015 -2.78299e-015 -3.18055e-015 -1.8127 -1.216 2.2227 2.38542e-015 7.95139e-016 3.18055e-015 -0.9571 1.114 1.7695 1.59028e-015 7.95139e-016 -0 -4.1246 0.487 4.1451 -7.28295e-031 4.37326e-015 9.54166e-015 -3.4052 -1.454 2.7682 3.18055e-015 -3.97569e-015 -3.18055e-015 -1.4531 -1.795 1.2713 4.77083e-015 -5.1684e-015 -3.18055e-015 -5.6954 0.21 2.1184 -7.28295e-031 4.37326e-015 9.54166e-015 -3.9766 -1.54 2.3863 3.18055e-015 -3.97569e-015 -3.18055e-015 -1.4042 -1.926 1.125 4.77083e-015 -5.1684e-015 -3.18055e-015 -2.0956 0.66 -0.3894 1.59028e-015 7.95139e-016 -0 -5.0395 -0.09 2.4971 -7.28295e-031 4.37326e-015 9.54166e-015 -3.7921 -1.552 1.4806 3.18055e-015 -3.97569e-015 -3.18055e-015 -1.4655 -1.808 0.9609 4.77083e-015 -5.1684e-015 -3.18055e-015 -4.9141 -1.269 0.3592 -7.28295e-031 4.37326e-015 9.54166e-015 -3.1477 -1.685 0.8462 3.18055e-015 -3.97569e-015 -3.18055e-015 -0.8055 -1.585 0.7955 4.77083e-015 -5.1684e-015 -3.18055e-015 8.367 -8.2066 0.5982 54.5256 -50.8579 24.4554 2.1923 -43.463 -0.4932 -174.185 77.0597 -178.578 0.7333 -45.8593 -2.6451 7.17891 21.042 5.56956 -8.367 -8.2066 0.5982 -55.522 -12.5576 1.51613 -2.1923 -43.463 -0.4931 1.07602 34.3224 -3.08597 -0.7333 -45.8593 -2.6451 -6.3693 24.0756 -2.63472 
2.27418 2.62393 -7.53674 -0 -81.5267 -0 0 -1.186 -1.5018 -0.0389854 3.3742 -0.122136 -4.44089e-016 9.964 0.2134 -0.0709362 6.74847 -0.2426 0 13.134 -3.2573 -0.0709361 6.74848 -0.2426 0 20.686 -1.6905 17.9421 18.3708 2.17005 0 7.238 -0.1237 11.0461 5.31101 11.9634 1.7069 20.075 5.0056 7.96734 13.3421 11.8015 13.6458 -0.047 -4.849 -80.1707 -0.422673 38.5819 28.3255 -0.9759 2.2888 32.9677 5.07399 -66.7074 22.1583 -0.53 10.8316 0.0721099 30.6577 -3.65278 0.786 0.112 2.5817 0 1.03368e-014 -0 0.3601 -0.878 4.2331 7.95139e-016 3.97569e-015 3.18055e-015 1.8127 -1.216 2.2227 -3.18055e-015 7.95139e-016 3.18055e-015 0.9571 1.114 1.7695 0 5.96354e-015 -0 4.1246 0.487 4.1451 -7.95139e-016 7.95139e-016 6.36111e-015 3.4052 -1.454 2.7682 -1.59028e-015 -1.59028e-015 -3.18055e-015 1.4531 -1.795 1.2713 -1.59028e-015 4.77083e-015 -0 5.6954 0.21 2.1184 -7.95139e-016 7.95139e-016 6.36111e-015 3.9766 -1.54 2.3863 -1.59028e-015 -1.59028e-015 -3.18055e-015 1.4042 -1.926 1.125 -1.59028e-015 4.77083e-015 -0 2.0956 0.66 -0.3894 0 5.96354e-015 -0 5.0395 -0.09 2.4971 -7.95139e-016 7.95139e-016 6.36111e-015 3.7921 -1.552 1.4806 -1.59028e-015 -1.59028e-015 -3.18055e-015 1.4655 -1.808 0.9609 -1.59028e-015 4.77083e-015 -0 4.9141 -1.269 0.3591 -7.95139e-016 7.95139e-016 6.36111e-015 3.1477 -1.685 0.8462 -1.59028e-015 -1.59028e-015 -3.18055e-015 0.8055 -1.585 0.7955 -1.59028e-015 4.77083e-015 -0 -1.7069 20.075 5.0056 -8.38362 13.2607 -11.7295 -13.6458 -0.047 -4.849 80.3047 -0.53731 -37.9461 -28.3255 -0.9759 2.2888 -33.6553 3.8046 66.0006 -22.1583 -0.53 10.8316 -0.383288 30.5952 4.59785 -0.786 0.112 2.5817 2.38542e-015 2.38542e-015 9.54166e-015 -0.3601 -0.878 4.2331 3.18055e-015 7.95139e-015 9.54166e-015 -1.8127 -1.216 2.2227 -1.19175e-030 7.15625e-015 9.54166e-015 -0.9571 1.114 1.7695 7.95139e-016 -1.98785e-015 6.36111e-015 -4.1246 0.487 4.1451 2.38542e-015 -5.1684e-015 1.27222e-014 -3.4052 -1.454 2.7682 3.18055e-015 1.19271e-015 6.36111e-015 -1.4531 -1.795 1.2713 7.95139e-016 1.31198e-014 3.18055e-015 -5.6954 0.21 2.1184 2.38542e-015 -5.1684e-015 1.27222e-014 -3.9766 -1.54 2.3863 3.18055e-015 1.19271e-015 6.36111e-015 -1.4042 -1.926 1.125 7.95139e-016 1.31198e-014 3.18055e-015 -2.0956 0.66 -0.3894 7.95139e-016 -1.98785e-015 6.36111e-015 -5.0395 -0.09 2.4971 2.38542e-015 -5.1684e-015 1.27222e-014 -3.7921 -1.552 1.4806 3.18055e-015 1.19271e-015 6.36111e-015 -1.4655 -1.808 0.9609 7.95139e-016 1.31198e-014 3.18055e-015 -4.9141 -1.269 0.3592 2.38542e-015 -5.1684e-015 1.27222e-014 -3.1477 -1.685 0.8462 3.18055e-015 1.19271e-015 6.36111e-015 -0.8055 -1.585 0.7955 7.95139e-016 1.31198e-014 3.18055e-015 8.367 -8.2066 0.5982 54.6244 -51.0733 24.5278 2.1923 -43.463 -0.4932 -174.184 77.0619 -178.572 0.7333 -45.8593 -2.6451 7.01487 21.0491 5.64316 -8.367 -8.2066 0.5982 -55.6159 -12.8779 1.05248 -2.1923 -43.463 -0.4931 1.07438 34.7428 -3.11642 -0.7333 -45.8593 -2.6451 -6.18748 24.0556 -2.73755 
2.26758 2.64212 -7.4846 -0 -81.3014 -0 0 -1.186 -1.5018 -0.0384806 3.26229 -0.12236 8.88178e-016 9.964 0.2134 -0.0701406 6.52465 -0.243114 0 13.134 -3.2573 -0.0701406 6.52465 -0.243114 4.44089e-016 20.686 -1.6905 17.9104 18.071 2.27227 0 7.238 -0.1237 11.0382 4.85799 12.0521 1.7069 20.075 5.0056 8.15805 13.6911 11.8652 13.6458 -0.047 -4.849 -80.2872 -0.47751 38.6477 28.3255 -0.9759 2.2888 32.9677 5.07399 -66.7074 22.1583 -0.53 10.8316 -0.00149615 30.8251 -3.67573 0.786 0.112 2.5817 -7.95139e-016 3.18055e-015 -0 0.3601 -0.878 4.2331 7.95139e-016 7.15625e-015 3.18055e-015 1.8127 -1.216 2.2227 7.95139e-016 3.57812e-015 -3.18055e-015 0.9571 1.114 1.7695 -7.95139e-016 3.57812e-015 -3.18055e-015 4.1246 0.487 4.1451 -7.95139e-016 7.95139e-016 6.36111e-015 3.4052 -1.454 2.7682 -7.95139e-016 7.55382e-015 -0 1.4531 -1.795 1.2713 0 4.37326e-015 -0 5.6954 0.21 2.1184 -7.95139e-016 7.95139e-016 6.36111e-015 3.9766 -1.54 2.3863 -7.95139e-016 7.55382e-015 -0 1.4042 -1.926 1.125 0 4.37326e-015 -0 2.0956 0.66 -0.3894 -7.95139e-016 3.57812e-015 -3.18055e-015 5.0395 -0.09 2.4971 -7.95139e-016 7.95139e-016 6.36111e-015 3.7921 -1.552 1.4806 -7.95139e-016 7.55382e-015 -0 1.4655 -1.808 0.9609 0 4.37326e-015 -0 4.9141 -1.269 0.3591 -7.95139e-016 7.95139e-016 6.36111e-015 3.1477 -1.685 0.8462 -7.95139e-016 7.55382e-015 -0 0.8055 -1.585 0.7955 0 4.37326e-015 -0 -1.7069 20.075 5.0056 -8.58586 13.6077 -11.7899 -13.6458 -0.047 -4.849 80.4206 -0.592067 -38.0143 -28.3255 -0.9759 2.2888 -33.6553 3.80458 66.0006 -22.1583 -0.53 10.8316 -0.310084 30.7638 4.62606 -0.786 0.112 2.5817 -7.95139e-016 7.95139e-016 9.54166e-015 -0.3601 -0.878 4.2331 2.38542e-015 1.19271e-015 3.18055e-015 -1.8127 -1.216 2.2227 1.59028e-015 3.97569e-016 6.36111e-015 -0.9571 1.114 1.7695 -7.95139e-016 7.95139e-016 9.54166e-015 -4.1246 0.487 4.1451 1.59028e-015 3.97569e-016 3.18055e-015 -3.4052 -1.454 2.7682 -3.75182e-031 6.75868e-015 3.18055e-015 -1.4531 -1.795 1.2713 -2.38542e-015 -7.95139e-016 3.18055e-015 -5.6954 0.21 2.1184 1.59028e-015 3.97569e-016 3.18055e-015 -3.9766 -1.54 2.3863 -3.75182e-031 6.75868e-015 3.18055e-015 -1.4042 -1.926 1.125 -2.38542e-015 -7.95139e-016 3.18055e-015 -2.0956 0.66 -0.3894 -7.95139e-016 7.95139e-016 9.54166e-015 -5.0395 -0.09 2.4971 1.59028e-015 3.97569e-016 3.18055e-015 -3.7921 -1.552 1.4806 -3.75182e-031 6.75868e-015 3.18055e-015 -1.4655 -1.808 0.9609 -2.38542e-015 -7.95139e-016 3.18055e-015 -4.9141 -1.269 0.3592 1.59028e-015 3.97569e-016 3.18055e-015 -3.1477 -1.685 0.8462 -3.75182e-031 6.75868e-015 3.18055e-015 -0.8055 -1.585 0.7955 -2.38542e-015 -7.95139e-016 3.18055e-015 8.367 -8.2066 0.5982 54.7238 -51.2889 24.6007 2.1923 -43.463 -0.4932 -174.184 77.0642 -178.567 0.7333 -45.8593 -2.6451 6.85081 21.0562 5.71674 -8.367 -8.2066 0.5982 -55.7126 -13.1968 0.587704 -2.1923 -43.463 -0.4931 1.07238 35.1622 -3.14662 -0.7333 -45.8593 -2.6451 -6.0054 24.0356 -2.84033 
